<mxfile host="app.diagrams.net" agent="Mozilla/5.0 (Windows NT 10.0; Win64; x64) AppleWebKit/537.36 (KHTML, like Gecko) Chrome/132.0.0.0 Safari/537.36 OPR/117.0.0.0" version="26.1.3">
  <diagram name="PÃ¡gina-1" id="fSqymedlM3iGDVWvJ7V-">
    <mxGraphModel dx="5970" dy="5339" grid="1" gridSize="10" guides="1" tooltips="1" connect="1" arrows="1" fold="1" page="1" pageScale="1" pageWidth="827" pageHeight="1169" math="0" shadow="0">
      <root>
        <mxCell id="0" />
        <mxCell id="1" parent="0" />
        <mxCell id="xTbJUdBc3i-07aB3oZLK-1" value="" style="shape=mxgraph.arrows2.wedgeArrowDashed2;html=1;bendable=0;startWidth=50;stepSize=15;rounded=0;" edge="1" parent="1">
          <mxGeometry width="100" height="100" relative="1" as="geometry">
            <mxPoint x="-1050" y="-3040" as="sourcePoint" />
            <mxPoint x="-1050" y="-2960" as="targetPoint" />
          </mxGeometry>
        </mxCell>
        <mxCell id="xTbJUdBc3i-07aB3oZLK-2" value="Tamanho = 0" style="text;strokeColor=none;fillColor=none;html=1;fontSize=24;fontStyle=1;verticalAlign=middle;align=center;" vertex="1" parent="1">
          <mxGeometry x="-1100" y="-2950" width="100" height="40" as="geometry" />
        </mxCell>
        <mxCell id="xTbJUdBc3i-07aB3oZLK-3" value="1 - Criar a Pilha" style="text;strokeColor=none;fillColor=none;html=1;fontSize=24;fontStyle=1;verticalAlign=middle;align=center;" vertex="1" parent="1">
          <mxGeometry x="-1110" y="-3220" width="100" height="40" as="geometry" />
        </mxCell>
        <mxCell id="xTbJUdBc3i-07aB3oZLK-4" value="" style="endArrow=classic;html=1;rounded=0;" edge="1" parent="1">
          <mxGeometry width="50" height="50" relative="1" as="geometry">
            <mxPoint x="-1050" y="-3130" as="sourcePoint" />
            <mxPoint x="-1050" y="-3040" as="targetPoint" />
          </mxGeometry>
        </mxCell>
        <mxCell id="xTbJUdBc3i-07aB3oZLK-8" value="TOPO" style="text;strokeColor=none;fillColor=none;html=1;fontSize=24;fontStyle=1;verticalAlign=middle;align=center;" vertex="1" parent="1">
          <mxGeometry x="-1100" y="-3164" width="100" height="40" as="geometry" />
        </mxCell>
        <mxCell id="xTbJUdBc3i-07aB3oZLK-9" value="2 - Empilhar os elementos 3 e 6" style="text;strokeColor=none;fillColor=none;html=1;fontSize=24;fontStyle=1;verticalAlign=middle;align=center;" vertex="1" parent="1">
          <mxGeometry x="-770" y="-3220" width="100" height="40" as="geometry" />
        </mxCell>
        <mxCell id="xTbJUdBc3i-07aB3oZLK-10" value="" style="shape=mxgraph.arrows2.wedgeArrowDashed2;html=1;bendable=0;startWidth=50;stepSize=15;rounded=0;" edge="1" parent="1">
          <mxGeometry width="100" height="100" relative="1" as="geometry">
            <mxPoint x="-796" y="-3040" as="sourcePoint" />
            <mxPoint x="-796" y="-2960" as="targetPoint" />
          </mxGeometry>
        </mxCell>
        <mxCell id="xTbJUdBc3i-07aB3oZLK-11" value="Tamanho = 0" style="text;strokeColor=none;fillColor=none;html=1;fontSize=24;fontStyle=1;verticalAlign=middle;align=center;" vertex="1" parent="1">
          <mxGeometry x="-846" y="-2950" width="100" height="40" as="geometry" />
        </mxCell>
        <mxCell id="xTbJUdBc3i-07aB3oZLK-12" value="" style="endArrow=classic;html=1;rounded=0;" edge="1" parent="1">
          <mxGeometry width="50" height="50" relative="1" as="geometry">
            <mxPoint x="-796" y="-3130" as="sourcePoint" />
            <mxPoint x="-796" y="-3040" as="targetPoint" />
          </mxGeometry>
        </mxCell>
        <mxCell id="xTbJUdBc3i-07aB3oZLK-13" value="TOPO" style="text;strokeColor=none;fillColor=none;html=1;fontSize=24;fontStyle=1;verticalAlign=middle;align=center;" vertex="1" parent="1">
          <mxGeometry x="-846" y="-3164" width="100" height="40" as="geometry" />
        </mxCell>
        <mxCell id="xTbJUdBc3i-07aB3oZLK-14" value="" style="swimlane;startSize=0;" vertex="1" parent="1">
          <mxGeometry x="-620" y="-3160" width="80" height="70" as="geometry" />
        </mxCell>
        <mxCell id="xTbJUdBc3i-07aB3oZLK-17" value="3" style="text;strokeColor=none;fillColor=none;html=1;fontSize=24;fontStyle=1;verticalAlign=middle;align=center;" vertex="1" parent="xTbJUdBc3i-07aB3oZLK-14">
          <mxGeometry y="15" width="80" height="40" as="geometry" />
        </mxCell>
        <mxCell id="xTbJUdBc3i-07aB3oZLK-18" value="" style="endArrow=classic;html=1;rounded=0;" edge="1" parent="1" target="xTbJUdBc3i-07aB3oZLK-17">
          <mxGeometry width="50" height="50" relative="1" as="geometry">
            <mxPoint x="-480" y="-3125" as="sourcePoint" />
            <mxPoint x="-786" y="-3030" as="targetPoint" />
          </mxGeometry>
        </mxCell>
        <mxCell id="xTbJUdBc3i-07aB3oZLK-19" value="Novo" style="text;strokeColor=none;fillColor=none;html=1;fontSize=24;fontStyle=1;verticalAlign=middle;align=center;" vertex="1" parent="1">
          <mxGeometry x="-550" y="-3160" width="100" height="40" as="geometry" />
        </mxCell>
        <mxCell id="xTbJUdBc3i-07aB3oZLK-20" value="" style="line;strokeWidth=4;direction=south;html=1;perimeter=backbonePerimeter;points=[];outlineConnect=0;" vertex="1" parent="1">
          <mxGeometry x="-940" y="-3220" width="10" height="370" as="geometry" />
        </mxCell>
        <mxCell id="xTbJUdBc3i-07aB3oZLK-21" value="" style="line;strokeWidth=4;direction=south;html=1;perimeter=backbonePerimeter;points=[];outlineConnect=0;" vertex="1" parent="1">
          <mxGeometry x="-423" y="-3220" width="10" height="380" as="geometry" />
        </mxCell>
        <mxCell id="xTbJUdBc3i-07aB3oZLK-23" value="Passo 1" style="text;strokeColor=none;fillColor=none;html=1;fontSize=24;fontStyle=1;verticalAlign=middle;align=center;" vertex="1" parent="1">
          <mxGeometry x="-1120" y="-2880" width="100" height="40" as="geometry" />
        </mxCell>
        <mxCell id="xTbJUdBc3i-07aB3oZLK-24" value="Passo 2" style="text;strokeColor=none;fillColor=none;html=1;fontSize=24;fontStyle=1;verticalAlign=middle;align=center;" vertex="1" parent="1">
          <mxGeometry x="-730" y="-2890" width="100" height="40" as="geometry" />
        </mxCell>
        <mxCell id="xTbJUdBc3i-07aB3oZLK-25" value="" style="line;strokeWidth=2;html=1;" vertex="1" parent="1">
          <mxGeometry x="-1200" y="-2840" width="2160" height="10" as="geometry" />
        </mxCell>
        <mxCell id="xTbJUdBc3i-07aB3oZLK-26" value="Passo 3" style="text;strokeColor=none;fillColor=none;html=1;fontSize=24;fontStyle=1;verticalAlign=middle;align=center;" vertex="1" parent="1">
          <mxGeometry x="-240" y="-2890" width="100" height="40" as="geometry" />
        </mxCell>
        <mxCell id="xTbJUdBc3i-07aB3oZLK-27" value="" style="shape=mxgraph.arrows2.wedgeArrowDashed2;html=1;bendable=0;startWidth=50;stepSize=15;rounded=0;" edge="1" parent="1">
          <mxGeometry width="100" height="100" relative="1" as="geometry">
            <mxPoint x="-580.5" y="-3000" as="sourcePoint" />
            <mxPoint x="-580.5" y="-2920" as="targetPoint" />
          </mxGeometry>
        </mxCell>
        <mxCell id="xTbJUdBc3i-07aB3oZLK-28" value="" style="endArrow=classic;html=1;rounded=0;" edge="1" parent="1">
          <mxGeometry width="50" height="50" relative="1" as="geometry">
            <mxPoint x="-580.5" y="-3090" as="sourcePoint" />
            <mxPoint x="-580.5" y="-3000" as="targetPoint" />
          </mxGeometry>
        </mxCell>
        <mxCell id="xTbJUdBc3i-07aB3oZLK-29" value="" style="shape=mxgraph.arrows2.wedgeArrowDashed2;html=1;bendable=0;startWidth=50;stepSize=15;rounded=0;" edge="1" parent="1">
          <mxGeometry width="100" height="100" relative="1" as="geometry">
            <mxPoint x="-340" y="-3066" as="sourcePoint" />
            <mxPoint x="-340" y="-2986" as="targetPoint" />
          </mxGeometry>
        </mxCell>
        <mxCell id="xTbJUdBc3i-07aB3oZLK-30" value="Tamanho = 0" style="text;strokeColor=none;fillColor=none;html=1;fontSize=24;fontStyle=1;verticalAlign=middle;align=center;" vertex="1" parent="1">
          <mxGeometry x="-390" y="-2976" width="100" height="40" as="geometry" />
        </mxCell>
        <mxCell id="xTbJUdBc3i-07aB3oZLK-31" value="" style="endArrow=classic;html=1;rounded=0;" edge="1" parent="1">
          <mxGeometry width="50" height="50" relative="1" as="geometry">
            <mxPoint x="-340" y="-3156" as="sourcePoint" />
            <mxPoint x="-340" y="-3066" as="targetPoint" />
          </mxGeometry>
        </mxCell>
        <mxCell id="xTbJUdBc3i-07aB3oZLK-32" value="TOPO" style="text;strokeColor=none;fillColor=none;html=1;fontSize=24;fontStyle=1;verticalAlign=middle;align=center;" vertex="1" parent="1">
          <mxGeometry x="-390" y="-3190" width="100" height="40" as="geometry" />
        </mxCell>
        <mxCell id="xTbJUdBc3i-07aB3oZLK-33" value="" style="swimlane;startSize=0;" vertex="1" parent="1">
          <mxGeometry x="-164" y="-3186" width="80" height="70" as="geometry" />
        </mxCell>
        <mxCell id="xTbJUdBc3i-07aB3oZLK-34" value="3" style="text;strokeColor=none;fillColor=none;html=1;fontSize=24;fontStyle=1;verticalAlign=middle;align=center;" vertex="1" parent="xTbJUdBc3i-07aB3oZLK-33">
          <mxGeometry y="15" width="80" height="40" as="geometry" />
        </mxCell>
        <mxCell id="xTbJUdBc3i-07aB3oZLK-35" value="" style="endArrow=classic;html=1;rounded=0;" edge="1" parent="1" target="xTbJUdBc3i-07aB3oZLK-34">
          <mxGeometry width="50" height="50" relative="1" as="geometry">
            <mxPoint x="-24" y="-3151" as="sourcePoint" />
            <mxPoint x="-330" y="-3056" as="targetPoint" />
          </mxGeometry>
        </mxCell>
        <mxCell id="xTbJUdBc3i-07aB3oZLK-36" value="" style="shape=mxgraph.arrows2.wedgeArrowDashed2;html=1;bendable=0;startWidth=50;stepSize=15;rounded=0;" edge="1" parent="1">
          <mxGeometry width="100" height="100" relative="1" as="geometry">
            <mxPoint x="-124.5" y="-3026" as="sourcePoint" />
            <mxPoint x="-124.5" y="-2946" as="targetPoint" />
          </mxGeometry>
        </mxCell>
        <mxCell id="xTbJUdBc3i-07aB3oZLK-37" value="" style="endArrow=classic;html=1;rounded=0;" edge="1" parent="1">
          <mxGeometry width="50" height="50" relative="1" as="geometry">
            <mxPoint x="-124.5" y="-3116" as="sourcePoint" />
            <mxPoint x="-340" y="-3070" as="targetPoint" />
          </mxGeometry>
        </mxCell>
        <mxCell id="xTbJUdBc3i-07aB3oZLK-38" value="Novo" style="text;strokeColor=none;fillColor=none;html=1;fontSize=24;fontStyle=1;verticalAlign=middle;align=center;" vertex="1" parent="1">
          <mxGeometry x="-90" y="-3190" width="100" height="40" as="geometry" />
        </mxCell>
        <mxCell id="xTbJUdBc3i-07aB3oZLK-39" value="" style="line;strokeWidth=4;direction=south;html=1;perimeter=backbonePerimeter;points=[];outlineConnect=0;" vertex="1" parent="1">
          <mxGeometry x="40" y="-3221" width="10" height="380" as="geometry" />
        </mxCell>
        <mxCell id="xTbJUdBc3i-07aB3oZLK-40" value="Passo 4" style="text;strokeColor=none;fillColor=none;html=1;fontSize=24;fontStyle=1;verticalAlign=middle;align=center;" vertex="1" parent="1">
          <mxGeometry x="210" y="-2900" width="100" height="40" as="geometry" />
        </mxCell>
        <mxCell id="xTbJUdBc3i-07aB3oZLK-41" value="" style="shape=mxgraph.arrows2.wedgeArrowDashed2;html=1;bendable=0;startWidth=50;stepSize=15;rounded=0;" edge="1" parent="1">
          <mxGeometry width="100" height="100" relative="1" as="geometry">
            <mxPoint x="150" y="-3066" as="sourcePoint" />
            <mxPoint x="150" y="-2986" as="targetPoint" />
          </mxGeometry>
        </mxCell>
        <mxCell id="xTbJUdBc3i-07aB3oZLK-42" value="Tamanho = 0" style="text;strokeColor=none;fillColor=none;html=1;fontSize=24;fontStyle=1;verticalAlign=middle;align=center;" vertex="1" parent="1">
          <mxGeometry x="100" y="-2976" width="100" height="40" as="geometry" />
        </mxCell>
        <mxCell id="xTbJUdBc3i-07aB3oZLK-43" value="" style="endArrow=classic;html=1;rounded=0;entryX=0;entryY=0.5;entryDx=0;entryDy=0;" edge="1" parent="1" target="xTbJUdBc3i-07aB3oZLK-46">
          <mxGeometry width="50" height="50" relative="1" as="geometry">
            <mxPoint x="150" y="-3156" as="sourcePoint" />
            <mxPoint x="150" y="-3066" as="targetPoint" />
          </mxGeometry>
        </mxCell>
        <mxCell id="xTbJUdBc3i-07aB3oZLK-44" value="TOPO" style="text;strokeColor=none;fillColor=none;html=1;fontSize=24;fontStyle=1;verticalAlign=middle;align=center;" vertex="1" parent="1">
          <mxGeometry x="100" y="-3190" width="100" height="40" as="geometry" />
        </mxCell>
        <mxCell id="xTbJUdBc3i-07aB3oZLK-45" value="" style="swimlane;startSize=0;" vertex="1" parent="1">
          <mxGeometry x="326" y="-3186" width="80" height="70" as="geometry" />
        </mxCell>
        <mxCell id="xTbJUdBc3i-07aB3oZLK-46" value="3" style="text;strokeColor=none;fillColor=none;html=1;fontSize=24;fontStyle=1;verticalAlign=middle;align=center;" vertex="1" parent="xTbJUdBc3i-07aB3oZLK-45">
          <mxGeometry y="15" width="80" height="40" as="geometry" />
        </mxCell>
        <mxCell id="xTbJUdBc3i-07aB3oZLK-47" value="" style="endArrow=classic;html=1;rounded=0;" edge="1" parent="1" target="xTbJUdBc3i-07aB3oZLK-46">
          <mxGeometry width="50" height="50" relative="1" as="geometry">
            <mxPoint x="466" y="-3151" as="sourcePoint" />
            <mxPoint x="160" y="-3056" as="targetPoint" />
          </mxGeometry>
        </mxCell>
        <mxCell id="xTbJUdBc3i-07aB3oZLK-48" value="" style="shape=mxgraph.arrows2.wedgeArrowDashed2;html=1;bendable=0;startWidth=50;stepSize=15;rounded=0;" edge="1" parent="1">
          <mxGeometry width="100" height="100" relative="1" as="geometry">
            <mxPoint x="365.5" y="-3026" as="sourcePoint" />
            <mxPoint x="365.5" y="-2946" as="targetPoint" />
          </mxGeometry>
        </mxCell>
        <mxCell id="xTbJUdBc3i-07aB3oZLK-49" value="" style="endArrow=classic;html=1;rounded=0;" edge="1" parent="1">
          <mxGeometry width="50" height="50" relative="1" as="geometry">
            <mxPoint x="365.5" y="-3116" as="sourcePoint" />
            <mxPoint x="150" y="-3070" as="targetPoint" />
          </mxGeometry>
        </mxCell>
        <mxCell id="xTbJUdBc3i-07aB3oZLK-50" value="Novo" style="text;strokeColor=none;fillColor=none;html=1;fontSize=24;fontStyle=1;verticalAlign=middle;align=center;" vertex="1" parent="1">
          <mxGeometry x="400" y="-3190" width="100" height="40" as="geometry" />
        </mxCell>
        <mxCell id="xTbJUdBc3i-07aB3oZLK-51" value="" style="line;strokeWidth=4;direction=south;html=1;perimeter=backbonePerimeter;points=[];outlineConnect=0;" vertex="1" parent="1">
          <mxGeometry x="550" y="-3221" width="10" height="380" as="geometry" />
        </mxCell>
        <mxCell id="xTbJUdBc3i-07aB3oZLK-52" value="Passo 5" style="text;strokeColor=none;fillColor=none;html=1;fontSize=24;fontStyle=1;verticalAlign=middle;align=center;" vertex="1" parent="1">
          <mxGeometry x="727" y="-2900" width="100" height="40" as="geometry" />
        </mxCell>
        <mxCell id="xTbJUdBc3i-07aB3oZLK-53" value="" style="shape=mxgraph.arrows2.wedgeArrowDashed2;html=1;bendable=0;startWidth=50;stepSize=15;rounded=0;" edge="1" parent="1">
          <mxGeometry width="100" height="100" relative="1" as="geometry">
            <mxPoint x="756.29" y="-3040" as="sourcePoint" />
            <mxPoint x="756.29" y="-2986" as="targetPoint" />
          </mxGeometry>
        </mxCell>
        <mxCell id="xTbJUdBc3i-07aB3oZLK-54" value="Tamanho = 1" style="text;strokeColor=none;fillColor=none;html=1;fontSize=24;fontStyle=1;verticalAlign=middle;align=center;" vertex="1" parent="1">
          <mxGeometry x="717" y="-2976" width="100" height="40" as="geometry" />
        </mxCell>
        <mxCell id="xTbJUdBc3i-07aB3oZLK-55" value="" style="endArrow=classic;html=1;rounded=0;exitX=0.5;exitY=1;exitDx=0;exitDy=0;entryX=0;entryY=0.5;entryDx=0;entryDy=0;" edge="1" parent="1" target="xTbJUdBc3i-07aB3oZLK-58" source="xTbJUdBc3i-07aB3oZLK-56">
          <mxGeometry width="50" height="50" relative="1" as="geometry">
            <mxPoint x="767" y="-3156" as="sourcePoint" />
            <mxPoint x="757" y="-3150" as="targetPoint" />
          </mxGeometry>
        </mxCell>
        <mxCell id="xTbJUdBc3i-07aB3oZLK-56" value="TOPO" style="text;strokeColor=none;fillColor=none;html=1;fontSize=24;fontStyle=1;verticalAlign=middle;align=center;" vertex="1" parent="1">
          <mxGeometry x="570" y="-3156" width="100" height="40" as="geometry" />
        </mxCell>
        <mxCell id="xTbJUdBc3i-07aB3oZLK-57" value="" style="swimlane;startSize=0;" vertex="1" parent="1">
          <mxGeometry x="717" y="-3150" width="80" height="70" as="geometry" />
        </mxCell>
        <mxCell id="xTbJUdBc3i-07aB3oZLK-58" value="3" style="text;strokeColor=none;fillColor=none;html=1;fontSize=24;fontStyle=1;verticalAlign=middle;align=center;" vertex="1" parent="xTbJUdBc3i-07aB3oZLK-57">
          <mxGeometry y="15" width="80" height="40" as="geometry" />
        </mxCell>
        <mxCell id="xTbJUdBc3i-07aB3oZLK-61" value="" style="endArrow=classic;html=1;rounded=0;exitX=0.5;exitY=1;exitDx=0;exitDy=0;" edge="1" parent="1" source="xTbJUdBc3i-07aB3oZLK-57">
          <mxGeometry width="50" height="50" relative="1" as="geometry">
            <mxPoint x="982.5" y="-3116" as="sourcePoint" />
            <mxPoint x="757" y="-3040" as="targetPoint" />
          </mxGeometry>
        </mxCell>
        <mxCell id="xTbJUdBc3i-07aB3oZLK-64" value="" style="line;strokeWidth=4;direction=south;html=1;perimeter=backbonePerimeter;points=[];outlineConnect=0;" vertex="1" parent="1">
          <mxGeometry x="950" y="-3220" width="10" height="380" as="geometry" />
        </mxCell>
        <mxCell id="xTbJUdBc3i-07aB3oZLK-65" value="Passo 6&amp;nbsp;" style="text;strokeColor=none;fillColor=none;html=1;fontSize=24;fontStyle=1;verticalAlign=middle;align=center;" vertex="1" parent="1">
          <mxGeometry x="-960" y="-2540" width="100" height="40" as="geometry" />
        </mxCell>
        <mxCell id="xTbJUdBc3i-07aB3oZLK-66" value="" style="shape=mxgraph.arrows2.wedgeArrowDashed2;html=1;bendable=0;startWidth=50;stepSize=15;rounded=0;" edge="1" parent="1">
          <mxGeometry width="100" height="100" relative="1" as="geometry">
            <mxPoint x="-1027.21" y="-2680" as="sourcePoint" />
            <mxPoint x="-1027.21" y="-2626" as="targetPoint" />
          </mxGeometry>
        </mxCell>
        <mxCell id="xTbJUdBc3i-07aB3oZLK-67" value="Tamanho = 1" style="text;strokeColor=none;fillColor=none;html=1;fontSize=24;fontStyle=1;verticalAlign=middle;align=center;" vertex="1" parent="1">
          <mxGeometry x="-1066.5" y="-2616" width="100" height="40" as="geometry" />
        </mxCell>
        <mxCell id="xTbJUdBc3i-07aB3oZLK-68" value="" style="endArrow=classic;html=1;rounded=0;exitX=0.5;exitY=1;exitDx=0;exitDy=0;entryX=0;entryY=0.5;entryDx=0;entryDy=0;" edge="1" parent="1" target="xTbJUdBc3i-07aB3oZLK-70">
          <mxGeometry width="50" height="50" relative="1" as="geometry">
            <mxPoint x="-1163.5" y="-2756" as="sourcePoint" />
            <mxPoint x="-1026.5" y="-2790" as="targetPoint" />
          </mxGeometry>
        </mxCell>
        <mxCell id="xTbJUdBc3i-07aB3oZLK-69" value="" style="swimlane;startSize=0;" vertex="1" parent="1">
          <mxGeometry x="-1066.5" y="-2790" width="80" height="70" as="geometry" />
        </mxCell>
        <mxCell id="xTbJUdBc3i-07aB3oZLK-70" value="3" style="text;strokeColor=none;fillColor=none;html=1;fontSize=24;fontStyle=1;verticalAlign=middle;align=center;" vertex="1" parent="xTbJUdBc3i-07aB3oZLK-69">
          <mxGeometry y="15" width="80" height="40" as="geometry" />
        </mxCell>
        <mxCell id="xTbJUdBc3i-07aB3oZLK-71" value="" style="endArrow=classic;html=1;rounded=0;exitX=0.5;exitY=1;exitDx=0;exitDy=0;" edge="1" parent="1" source="xTbJUdBc3i-07aB3oZLK-69">
          <mxGeometry width="50" height="50" relative="1" as="geometry">
            <mxPoint x="-801" y="-2756" as="sourcePoint" />
            <mxPoint x="-1026.5" y="-2680" as="targetPoint" />
          </mxGeometry>
        </mxCell>
        <mxCell id="xTbJUdBc3i-07aB3oZLK-72" value="TOPO" style="text;strokeColor=none;fillColor=none;html=1;fontSize=24;fontStyle=1;verticalAlign=middle;align=center;" vertex="1" parent="1">
          <mxGeometry x="-1180" y="-2800" width="100" height="40" as="geometry" />
        </mxCell>
        <mxCell id="xTbJUdBc3i-07aB3oZLK-73" value="" style="swimlane;startSize=0;" vertex="1" parent="1">
          <mxGeometry x="-846" y="-2816" width="80" height="70" as="geometry" />
        </mxCell>
        <mxCell id="xTbJUdBc3i-07aB3oZLK-74" value="6" style="text;strokeColor=none;fillColor=none;html=1;fontSize=24;fontStyle=1;verticalAlign=middle;align=center;" vertex="1" parent="xTbJUdBc3i-07aB3oZLK-73">
          <mxGeometry y="15" width="80" height="40" as="geometry" />
        </mxCell>
        <mxCell id="xTbJUdBc3i-07aB3oZLK-75" value="" style="endArrow=classic;html=1;rounded=0;" edge="1" parent="1" target="xTbJUdBc3i-07aB3oZLK-74">
          <mxGeometry width="50" height="50" relative="1" as="geometry">
            <mxPoint x="-706" y="-2781" as="sourcePoint" />
            <mxPoint x="-1012" y="-2686" as="targetPoint" />
          </mxGeometry>
        </mxCell>
        <mxCell id="xTbJUdBc3i-07aB3oZLK-76" value="" style="shape=mxgraph.arrows2.wedgeArrowDashed2;html=1;bendable=0;startWidth=50;stepSize=15;rounded=0;" edge="1" parent="1">
          <mxGeometry width="100" height="100" relative="1" as="geometry">
            <mxPoint x="-806.5" y="-2656" as="sourcePoint" />
            <mxPoint x="-806.5" y="-2576" as="targetPoint" />
          </mxGeometry>
        </mxCell>
        <mxCell id="xTbJUdBc3i-07aB3oZLK-77" value="" style="endArrow=classic;html=1;rounded=0;" edge="1" parent="1">
          <mxGeometry width="50" height="50" relative="1" as="geometry">
            <mxPoint x="-806.5" y="-2746" as="sourcePoint" />
            <mxPoint x="-806.5" y="-2656" as="targetPoint" />
          </mxGeometry>
        </mxCell>
        <mxCell id="xTbJUdBc3i-07aB3oZLK-78" value="Novo" style="text;strokeColor=none;fillColor=none;html=1;fontSize=24;fontStyle=1;verticalAlign=middle;align=center;" vertex="1" parent="1">
          <mxGeometry x="-770" y="-2816" width="100" height="40" as="geometry" />
        </mxCell>
        <mxCell id="xTbJUdBc3i-07aB3oZLK-79" value="" style="line;strokeWidth=4;direction=south;html=1;perimeter=backbonePerimeter;points=[];outlineConnect=0;" vertex="1" parent="1">
          <mxGeometry x="-620" y="-2830" width="10" height="370" as="geometry" />
        </mxCell>
        <mxCell id="xTbJUdBc3i-07aB3oZLK-80" value="" style="line;strokeWidth=2;html=1;" vertex="1" parent="1">
          <mxGeometry x="-1230" y="-2440" width="2160" height="10" as="geometry" />
        </mxCell>
        <mxCell id="xTbJUdBc3i-07aB3oZLK-81" value="Passo 7" style="text;strokeColor=none;fillColor=none;html=1;fontSize=24;fontStyle=1;verticalAlign=middle;align=center;" vertex="1" parent="1">
          <mxGeometry x="-380" y="-2529" width="100" height="40" as="geometry" />
        </mxCell>
        <mxCell id="xTbJUdBc3i-07aB3oZLK-82" value="" style="shape=mxgraph.arrows2.wedgeArrowDashed2;html=1;bendable=0;startWidth=50;stepSize=15;rounded=0;" edge="1" parent="1">
          <mxGeometry width="100" height="100" relative="1" as="geometry">
            <mxPoint x="-447.21000000000004" y="-2669" as="sourcePoint" />
            <mxPoint x="-447.21000000000004" y="-2615" as="targetPoint" />
          </mxGeometry>
        </mxCell>
        <mxCell id="xTbJUdBc3i-07aB3oZLK-83" value="Tamanho = 1" style="text;strokeColor=none;fillColor=none;html=1;fontSize=24;fontStyle=1;verticalAlign=middle;align=center;" vertex="1" parent="1">
          <mxGeometry x="-486.5" y="-2605" width="100" height="40" as="geometry" />
        </mxCell>
        <mxCell id="xTbJUdBc3i-07aB3oZLK-84" value="" style="endArrow=classic;html=1;rounded=0;exitX=0.5;exitY=1;exitDx=0;exitDy=0;entryX=0;entryY=0.5;entryDx=0;entryDy=0;" edge="1" parent="1" target="xTbJUdBc3i-07aB3oZLK-86">
          <mxGeometry width="50" height="50" relative="1" as="geometry">
            <mxPoint x="-583.5" y="-2745" as="sourcePoint" />
            <mxPoint x="-446.5" y="-2779" as="targetPoint" />
          </mxGeometry>
        </mxCell>
        <mxCell id="xTbJUdBc3i-07aB3oZLK-85" value="" style="swimlane;startSize=0;" vertex="1" parent="1">
          <mxGeometry x="-486.5" y="-2779" width="80" height="70" as="geometry" />
        </mxCell>
        <mxCell id="xTbJUdBc3i-07aB3oZLK-86" value="3" style="text;strokeColor=none;fillColor=none;html=1;fontSize=24;fontStyle=1;verticalAlign=middle;align=center;" vertex="1" parent="xTbJUdBc3i-07aB3oZLK-85">
          <mxGeometry y="15" width="80" height="40" as="geometry" />
        </mxCell>
        <mxCell id="xTbJUdBc3i-07aB3oZLK-87" value="" style="endArrow=classic;html=1;rounded=0;exitX=0.5;exitY=1;exitDx=0;exitDy=0;" edge="1" parent="1" source="xTbJUdBc3i-07aB3oZLK-85">
          <mxGeometry width="50" height="50" relative="1" as="geometry">
            <mxPoint x="-221" y="-2745" as="sourcePoint" />
            <mxPoint x="-446.5" y="-2669" as="targetPoint" />
          </mxGeometry>
        </mxCell>
        <mxCell id="xTbJUdBc3i-07aB3oZLK-88" value="TOPO" style="text;strokeColor=none;fillColor=none;html=1;fontSize=24;fontStyle=1;verticalAlign=middle;align=center;" vertex="1" parent="1">
          <mxGeometry x="-600" y="-2789" width="100" height="40" as="geometry" />
        </mxCell>
        <mxCell id="xTbJUdBc3i-07aB3oZLK-89" value="6" style="text;strokeColor=none;fillColor=none;html=1;fontSize=24;fontStyle=1;verticalAlign=middle;align=center;" vertex="1" parent="1">
          <mxGeometry x="-266" y="-2790" width="80" height="40" as="geometry" />
        </mxCell>
        <mxCell id="xTbJUdBc3i-07aB3oZLK-90" value="" style="endArrow=classic;html=1;rounded=0;" edge="1" parent="1" target="xTbJUdBc3i-07aB3oZLK-89">
          <mxGeometry width="50" height="50" relative="1" as="geometry">
            <mxPoint x="-126" y="-2770" as="sourcePoint" />
            <mxPoint x="-432" y="-2675" as="targetPoint" />
          </mxGeometry>
        </mxCell>
        <mxCell id="xTbJUdBc3i-07aB3oZLK-91" value="" style="shape=mxgraph.arrows2.wedgeArrowDashed2;html=1;bendable=0;startWidth=50;stepSize=15;rounded=0;" edge="1" parent="1">
          <mxGeometry width="100" height="100" relative="1" as="geometry">
            <mxPoint x="-226.5" y="-2645" as="sourcePoint" />
            <mxPoint x="-226.5" y="-2565" as="targetPoint" />
          </mxGeometry>
        </mxCell>
        <mxCell id="xTbJUdBc3i-07aB3oZLK-92" value="" style="endArrow=classic;html=1;rounded=0;entryX=1;entryY=0.5;entryDx=0;entryDy=0;" edge="1" parent="1" target="xTbJUdBc3i-07aB3oZLK-86">
          <mxGeometry width="50" height="50" relative="1" as="geometry">
            <mxPoint x="-226.5" y="-2735" as="sourcePoint" />
            <mxPoint x="-440" y="-2670" as="targetPoint" />
            <Array as="points">
              <mxPoint x="-310" y="-2710" />
            </Array>
          </mxGeometry>
        </mxCell>
        <mxCell id="xTbJUdBc3i-07aB3oZLK-93" value="" style="swimlane;startSize=0;" vertex="1" parent="1">
          <mxGeometry x="-266" y="-2805" width="80" height="70" as="geometry" />
        </mxCell>
        <mxCell id="xTbJUdBc3i-07aB3oZLK-94" value="6" style="text;strokeColor=none;fillColor=none;html=1;fontSize=24;fontStyle=1;verticalAlign=middle;align=center;" vertex="1" parent="xTbJUdBc3i-07aB3oZLK-93">
          <mxGeometry y="15" width="80" height="40" as="geometry" />
        </mxCell>
        <mxCell id="xTbJUdBc3i-07aB3oZLK-95" value="Novo" style="text;strokeColor=none;fillColor=none;html=1;fontSize=24;fontStyle=1;verticalAlign=middle;align=center;" vertex="1" parent="1">
          <mxGeometry x="-190" y="-2805" width="100" height="40" as="geometry" />
        </mxCell>
        <mxCell id="xTbJUdBc3i-07aB3oZLK-96" value="" style="line;strokeWidth=4;direction=south;html=1;perimeter=backbonePerimeter;points=[];outlineConnect=0;" vertex="1" parent="1">
          <mxGeometry x="-45" y="-2820" width="10" height="370" as="geometry" />
        </mxCell>
        <mxCell id="xTbJUdBc3i-07aB3oZLK-97" value="Passo 8" style="text;strokeColor=none;fillColor=none;html=1;fontSize=24;fontStyle=1;verticalAlign=middle;align=center;" vertex="1" parent="1">
          <mxGeometry x="193.5" y="-2534" width="100" height="40" as="geometry" />
        </mxCell>
        <mxCell id="xTbJUdBc3i-07aB3oZLK-98" value="" style="shape=mxgraph.arrows2.wedgeArrowDashed2;html=1;bendable=0;startWidth=50;stepSize=15;rounded=0;" edge="1" parent="1">
          <mxGeometry width="100" height="100" relative="1" as="geometry">
            <mxPoint x="126.28999999999996" y="-2674" as="sourcePoint" />
            <mxPoint x="126.28999999999996" y="-2620" as="targetPoint" />
          </mxGeometry>
        </mxCell>
        <mxCell id="xTbJUdBc3i-07aB3oZLK-99" value="Tamanho = 1" style="text;strokeColor=none;fillColor=none;html=1;fontSize=24;fontStyle=1;verticalAlign=middle;align=center;" vertex="1" parent="1">
          <mxGeometry x="87" y="-2610" width="100" height="40" as="geometry" />
        </mxCell>
        <mxCell id="xTbJUdBc3i-07aB3oZLK-100" value="" style="endArrow=classic;html=1;rounded=0;exitX=0.5;exitY=1;exitDx=0;exitDy=0;entryX=0;entryY=0;entryDx=0;entryDy=0;" edge="1" parent="1" target="xTbJUdBc3i-07aB3oZLK-109">
          <mxGeometry width="50" height="50" relative="1" as="geometry">
            <mxPoint x="-10" y="-2750" as="sourcePoint" />
            <mxPoint x="127" y="-2784" as="targetPoint" />
            <Array as="points">
              <mxPoint x="40" y="-2800" />
            </Array>
          </mxGeometry>
        </mxCell>
        <mxCell id="xTbJUdBc3i-07aB3oZLK-101" value="" style="swimlane;startSize=0;" vertex="1" parent="1">
          <mxGeometry x="87" y="-2784" width="80" height="70" as="geometry" />
        </mxCell>
        <mxCell id="xTbJUdBc3i-07aB3oZLK-102" value="3" style="text;strokeColor=none;fillColor=none;html=1;fontSize=24;fontStyle=1;verticalAlign=middle;align=center;" vertex="1" parent="xTbJUdBc3i-07aB3oZLK-101">
          <mxGeometry y="15" width="80" height="40" as="geometry" />
        </mxCell>
        <mxCell id="xTbJUdBc3i-07aB3oZLK-103" value="" style="endArrow=classic;html=1;rounded=0;exitX=0.5;exitY=1;exitDx=0;exitDy=0;" edge="1" parent="1" source="xTbJUdBc3i-07aB3oZLK-101">
          <mxGeometry width="50" height="50" relative="1" as="geometry">
            <mxPoint x="352.5" y="-2750" as="sourcePoint" />
            <mxPoint x="127" y="-2674" as="targetPoint" />
          </mxGeometry>
        </mxCell>
        <mxCell id="xTbJUdBc3i-07aB3oZLK-104" value="6" style="text;strokeColor=none;fillColor=none;html=1;fontSize=24;fontStyle=1;verticalAlign=middle;align=center;" vertex="1" parent="1">
          <mxGeometry x="307.5" y="-2795" width="80" height="40" as="geometry" />
        </mxCell>
        <mxCell id="xTbJUdBc3i-07aB3oZLK-105" value="" style="endArrow=classic;html=1;rounded=0;" edge="1" parent="1" target="xTbJUdBc3i-07aB3oZLK-104">
          <mxGeometry width="50" height="50" relative="1" as="geometry">
            <mxPoint x="447.5" y="-2775" as="sourcePoint" />
            <mxPoint x="141.5" y="-2680" as="targetPoint" />
          </mxGeometry>
        </mxCell>
        <mxCell id="xTbJUdBc3i-07aB3oZLK-106" value="" style="shape=mxgraph.arrows2.wedgeArrowDashed2;html=1;bendable=0;startWidth=50;stepSize=15;rounded=0;" edge="1" parent="1">
          <mxGeometry width="100" height="100" relative="1" as="geometry">
            <mxPoint x="347" y="-2650" as="sourcePoint" />
            <mxPoint x="347" y="-2570" as="targetPoint" />
          </mxGeometry>
        </mxCell>
        <mxCell id="xTbJUdBc3i-07aB3oZLK-107" value="" style="endArrow=classic;html=1;rounded=0;entryX=1;entryY=0.5;entryDx=0;entryDy=0;" edge="1" parent="1" target="xTbJUdBc3i-07aB3oZLK-102">
          <mxGeometry width="50" height="50" relative="1" as="geometry">
            <mxPoint x="347" y="-2740" as="sourcePoint" />
            <mxPoint x="133.5" y="-2675" as="targetPoint" />
            <Array as="points">
              <mxPoint x="260" y="-2710" />
            </Array>
          </mxGeometry>
        </mxCell>
        <mxCell id="xTbJUdBc3i-07aB3oZLK-108" value="" style="swimlane;startSize=0;" vertex="1" parent="1">
          <mxGeometry x="307.5" y="-2810" width="80" height="70" as="geometry" />
        </mxCell>
        <mxCell id="xTbJUdBc3i-07aB3oZLK-109" value="6" style="text;strokeColor=none;fillColor=none;html=1;fontSize=24;fontStyle=1;verticalAlign=middle;align=center;" vertex="1" parent="xTbJUdBc3i-07aB3oZLK-108">
          <mxGeometry y="15" width="80" height="40" as="geometry" />
        </mxCell>
        <mxCell id="xTbJUdBc3i-07aB3oZLK-110" value="Novo" style="text;strokeColor=none;fillColor=none;html=1;fontSize=24;fontStyle=1;verticalAlign=middle;align=center;" vertex="1" parent="1">
          <mxGeometry x="383.5" y="-2810" width="100" height="40" as="geometry" />
        </mxCell>
        <mxCell id="xTbJUdBc3i-07aB3oZLK-111" value="TOPO" style="text;strokeColor=none;fillColor=none;html=1;fontSize=24;fontStyle=1;verticalAlign=middle;align=center;" vertex="1" parent="1">
          <mxGeometry x="20" y="-2830" width="100" height="40" as="geometry" />
        </mxCell>
        <mxCell id="xTbJUdBc3i-07aB3oZLK-112" value="" style="line;strokeWidth=4;direction=south;html=1;perimeter=backbonePerimeter;points=[];outlineConnect=0;" vertex="1" parent="1">
          <mxGeometry x="500" y="-2820" width="10" height="370" as="geometry" />
        </mxCell>
        <mxCell id="xTbJUdBc3i-07aB3oZLK-113" value="Passo 9" style="text;strokeColor=none;fillColor=none;html=1;fontSize=24;fontStyle=1;verticalAlign=middle;align=center;" vertex="1" parent="1">
          <mxGeometry x="717" y="-2494" width="100" height="40" as="geometry" />
        </mxCell>
        <mxCell id="xTbJUdBc3i-07aB3oZLK-114" value="" style="shape=mxgraph.arrows2.wedgeArrowDashed2;html=1;bendable=0;startWidth=50;stepSize=15;rounded=0;" edge="1" parent="1">
          <mxGeometry width="100" height="100" relative="1" as="geometry">
            <mxPoint x="786.79" y="-2605" as="sourcePoint" />
            <mxPoint x="786.79" y="-2551" as="targetPoint" />
          </mxGeometry>
        </mxCell>
        <mxCell id="xTbJUdBc3i-07aB3oZLK-115" value="Tamanho = 2" style="text;strokeColor=none;fillColor=none;html=1;fontSize=24;fontStyle=1;verticalAlign=middle;align=center;" vertex="1" parent="1">
          <mxGeometry x="607" y="-2560" width="100" height="40" as="geometry" />
        </mxCell>
        <mxCell id="xTbJUdBc3i-07aB3oZLK-117" value="" style="swimlane;startSize=0;" vertex="1" parent="1">
          <mxGeometry x="747" y="-2720" width="80" height="70" as="geometry" />
        </mxCell>
        <mxCell id="xTbJUdBc3i-07aB3oZLK-119" value="" style="endArrow=classic;html=1;rounded=0;exitX=0.5;exitY=1;exitDx=0;exitDy=0;" edge="1" parent="1" source="xTbJUdBc3i-07aB3oZLK-117">
          <mxGeometry width="50" height="50" relative="1" as="geometry">
            <mxPoint x="872.5" y="-2750" as="sourcePoint" />
            <mxPoint x="787" y="-2610" as="targetPoint" />
          </mxGeometry>
        </mxCell>
        <mxCell id="xTbJUdBc3i-07aB3oZLK-120" value="6" style="text;strokeColor=none;fillColor=none;html=1;fontSize=24;fontStyle=1;verticalAlign=middle;align=center;" vertex="1" parent="1">
          <mxGeometry x="747.5" y="-2801" width="80" height="40" as="geometry" />
        </mxCell>
        <mxCell id="xTbJUdBc3i-07aB3oZLK-127" style="edgeStyle=orthogonalEdgeStyle;rounded=0;orthogonalLoop=1;jettySize=auto;html=1;exitX=0.5;exitY=1;exitDx=0;exitDy=0;entryX=0.5;entryY=0;entryDx=0;entryDy=0;" edge="1" parent="1" source="xTbJUdBc3i-07aB3oZLK-124" target="xTbJUdBc3i-07aB3oZLK-117">
          <mxGeometry relative="1" as="geometry" />
        </mxCell>
        <mxCell id="xTbJUdBc3i-07aB3oZLK-124" value="" style="swimlane;startSize=0;" vertex="1" parent="1">
          <mxGeometry x="747.5" y="-2816" width="80" height="70" as="geometry" />
        </mxCell>
        <mxCell id="xTbJUdBc3i-07aB3oZLK-125" value="6" style="text;strokeColor=none;fillColor=none;html=1;fontSize=24;fontStyle=1;verticalAlign=middle;align=center;" vertex="1" parent="xTbJUdBc3i-07aB3oZLK-124">
          <mxGeometry y="15" width="80" height="40" as="geometry" />
        </mxCell>
        <mxCell id="xTbJUdBc3i-07aB3oZLK-118" value="3" style="text;strokeColor=none;fillColor=none;html=1;fontSize=24;fontStyle=1;verticalAlign=middle;align=center;" vertex="1" parent="1">
          <mxGeometry x="747.5" y="-2700" width="80" height="40" as="geometry" />
        </mxCell>
        <mxCell id="xTbJUdBc3i-07aB3oZLK-128" value="" style="endArrow=classic;html=1;rounded=0;entryX=0;entryY=0.5;entryDx=0;entryDy=0;" edge="1" parent="1" target="xTbJUdBc3i-07aB3oZLK-125">
          <mxGeometry width="50" height="50" relative="1" as="geometry">
            <mxPoint x="640" y="-2781" as="sourcePoint" />
            <mxPoint x="580" y="-2700" as="targetPoint" />
          </mxGeometry>
        </mxCell>
        <mxCell id="xTbJUdBc3i-07aB3oZLK-129" value="TOPO" style="text;strokeColor=none;fillColor=none;html=1;fontSize=24;fontStyle=1;verticalAlign=middle;align=center;" vertex="1" parent="1">
          <mxGeometry x="617" y="-2816" width="100" height="40" as="geometry" />
        </mxCell>
        <mxCell id="xTbJUdBc3i-07aB3oZLK-130" value="" style="line;strokeWidth=4;direction=south;html=1;perimeter=backbonePerimeter;points=[];outlineConnect=0;" vertex="1" parent="1">
          <mxGeometry x="950" y="-2824" width="10" height="370" as="geometry" />
        </mxCell>
        <mxCell id="xTbJUdBc3i-07aB3oZLK-131" value="" style="line;strokeWidth=4;direction=south;html=1;perimeter=backbonePerimeter;points=[];outlineConnect=0;" vertex="1" parent="1">
          <mxGeometry x="-1230" y="-2824" width="10" height="370" as="geometry" />
        </mxCell>
        <mxCell id="xTbJUdBc3i-07aB3oZLK-132" value="" style="line;strokeWidth=4;direction=south;html=1;perimeter=backbonePerimeter;points=[];outlineConnect=0;" vertex="1" parent="1">
          <mxGeometry x="-1230" y="-3221" width="10" height="370" as="geometry" />
        </mxCell>
        <mxCell id="xTbJUdBc3i-07aB3oZLK-133" value="" style="line;strokeWidth=2;html=1;" vertex="1" parent="1">
          <mxGeometry x="-1220" y="-3260" width="2160" height="10" as="geometry" />
        </mxCell>
        <mxCell id="xTbJUdBc3i-07aB3oZLK-134" value="Passo 10" style="text;strokeColor=none;fillColor=none;html=1;fontSize=24;fontStyle=1;verticalAlign=middle;align=center;" vertex="1" parent="1">
          <mxGeometry x="-1000" y="-1952" width="100" height="40" as="geometry" />
        </mxCell>
        <mxCell id="xTbJUdBc3i-07aB3oZLK-135" value="" style="shape=mxgraph.arrows2.wedgeArrowDashed2;html=1;bendable=0;startWidth=50;stepSize=15;rounded=0;" edge="1" parent="1">
          <mxGeometry width="100" height="100" relative="1" as="geometry">
            <mxPoint x="-946.96" y="-2096" as="sourcePoint" />
            <mxPoint x="-946.96" y="-2042" as="targetPoint" />
          </mxGeometry>
        </mxCell>
        <mxCell id="xTbJUdBc3i-07aB3oZLK-136" value="Tamanho = 2" style="text;strokeColor=none;fillColor=none;html=1;fontSize=24;fontStyle=1;verticalAlign=middle;align=center;" vertex="1" parent="1">
          <mxGeometry x="-1006.75" y="-2032" width="100" height="40" as="geometry" />
        </mxCell>
        <mxCell id="xTbJUdBc3i-07aB3oZLK-137" value="" style="swimlane;startSize=0;" vertex="1" parent="1">
          <mxGeometry x="-986.75" y="-2211" width="80" height="70" as="geometry" />
        </mxCell>
        <mxCell id="xTbJUdBc3i-07aB3oZLK-138" value="" style="endArrow=classic;html=1;rounded=0;exitX=0.5;exitY=1;exitDx=0;exitDy=0;" edge="1" parent="1" source="xTbJUdBc3i-07aB3oZLK-137">
          <mxGeometry width="50" height="50" relative="1" as="geometry">
            <mxPoint x="-861.25" y="-2241" as="sourcePoint" />
            <mxPoint x="-946.75" y="-2101" as="targetPoint" />
          </mxGeometry>
        </mxCell>
        <mxCell id="xTbJUdBc3i-07aB3oZLK-139" value="6" style="text;strokeColor=none;fillColor=none;html=1;fontSize=24;fontStyle=1;verticalAlign=middle;align=center;" vertex="1" parent="1">
          <mxGeometry x="-986.25" y="-2292" width="80" height="40" as="geometry" />
        </mxCell>
        <mxCell id="xTbJUdBc3i-07aB3oZLK-140" style="edgeStyle=orthogonalEdgeStyle;rounded=0;orthogonalLoop=1;jettySize=auto;html=1;exitX=0.5;exitY=1;exitDx=0;exitDy=0;entryX=0.5;entryY=0;entryDx=0;entryDy=0;" edge="1" parent="1" target="xTbJUdBc3i-07aB3oZLK-137">
          <mxGeometry relative="1" as="geometry">
            <mxPoint x="-945.75" y="-2237" as="sourcePoint" />
          </mxGeometry>
        </mxCell>
        <mxCell id="xTbJUdBc3i-07aB3oZLK-141" value="6" style="text;strokeColor=none;fillColor=none;html=1;fontSize=24;fontStyle=1;verticalAlign=middle;align=center;" vertex="1" parent="1">
          <mxGeometry x="-986.25" y="-2292" width="80" height="40" as="geometry" />
        </mxCell>
        <mxCell id="xTbJUdBc3i-07aB3oZLK-142" value="3" style="text;strokeColor=none;fillColor=none;html=1;fontSize=24;fontStyle=1;verticalAlign=middle;align=center;" vertex="1" parent="1">
          <mxGeometry x="-986.25" y="-2191" width="80" height="40" as="geometry" />
        </mxCell>
        <mxCell id="xTbJUdBc3i-07aB3oZLK-143" value="" style="endArrow=classic;html=1;rounded=0;entryX=0;entryY=0.5;entryDx=0;entryDy=0;" edge="1" parent="1" target="xTbJUdBc3i-07aB3oZLK-141">
          <mxGeometry width="50" height="50" relative="1" as="geometry">
            <mxPoint x="-1093.75" y="-2272" as="sourcePoint" />
            <mxPoint x="-1153.75" y="-2191" as="targetPoint" />
          </mxGeometry>
        </mxCell>
        <mxCell id="xTbJUdBc3i-07aB3oZLK-144" value="" style="swimlane;startSize=0;" vertex="1" parent="1">
          <mxGeometry x="-986.25" y="-2310" width="80" height="70" as="geometry" />
        </mxCell>
        <mxCell id="xTbJUdBc3i-07aB3oZLK-149" value="TOPO" style="text;strokeColor=none;fillColor=none;html=1;fontSize=24;fontStyle=1;verticalAlign=middle;align=center;" vertex="1" parent="1">
          <mxGeometry x="-1110" y="-2310" width="100" height="40" as="geometry" />
        </mxCell>
        <mxCell id="xTbJUdBc3i-07aB3oZLK-150" value="3 - Desempilhar" style="text;strokeColor=none;fillColor=none;html=1;fontSize=24;fontStyle=1;verticalAlign=middle;align=center;" vertex="1" parent="1">
          <mxGeometry x="-1066.5" y="-2410" width="100" height="40" as="geometry" />
        </mxCell>
        <mxCell id="xTbJUdBc3i-07aB3oZLK-151" value="" style="endArrow=classic;html=1;rounded=0;entryX=1;entryY=0.5;entryDx=0;entryDy=0;" edge="1" parent="1" target="xTbJUdBc3i-07aB3oZLK-144">
          <mxGeometry width="50" height="50" relative="1" as="geometry">
            <mxPoint x="-790" y="-2275" as="sourcePoint" />
            <mxPoint x="-580" y="-2180" as="targetPoint" />
          </mxGeometry>
        </mxCell>
        <mxCell id="xTbJUdBc3i-07aB3oZLK-152" value="Aux" style="text;strokeColor=none;fillColor=none;html=1;fontSize=24;fontStyle=1;verticalAlign=middle;align=center;" vertex="1" parent="1">
          <mxGeometry x="-900" y="-2310" width="100" height="40" as="geometry" />
        </mxCell>
        <mxCell id="xTbJUdBc3i-07aB3oZLK-153" value="" style="line;strokeWidth=2;html=1;" vertex="1" parent="1">
          <mxGeometry x="-1250" y="-1890" width="2160" height="10" as="geometry" />
        </mxCell>
        <mxCell id="xTbJUdBc3i-07aB3oZLK-154" value="" style="line;strokeWidth=4;direction=south;html=1;perimeter=backbonePerimeter;points=[];outlineConnect=0;" vertex="1" parent="1">
          <mxGeometry x="-1230" y="-2410" width="10" height="490" as="geometry" />
        </mxCell>
        <mxCell id="xTbJUdBc3i-07aB3oZLK-155" value="" style="line;strokeWidth=4;direction=south;html=1;perimeter=backbonePerimeter;points=[];outlineConnect=0;" vertex="1" parent="1">
          <mxGeometry x="-620" y="-2402" width="10" height="490" as="geometry" />
        </mxCell>
        <mxCell id="xTbJUdBc3i-07aB3oZLK-156" value="Passo 11" style="text;strokeColor=none;fillColor=none;html=1;fontSize=24;fontStyle=1;verticalAlign=middle;align=center;" vertex="1" parent="1">
          <mxGeometry x="-430" y="-1980" width="100" height="40" as="geometry" />
        </mxCell>
        <mxCell id="xTbJUdBc3i-07aB3oZLK-157" value="" style="shape=mxgraph.arrows2.wedgeArrowDashed2;html=1;bendable=0;startWidth=50;stepSize=15;rounded=0;" edge="1" parent="1">
          <mxGeometry width="100" height="100" relative="1" as="geometry">
            <mxPoint x="-376.96000000000004" y="-2124" as="sourcePoint" />
            <mxPoint x="-376.96000000000004" y="-2070" as="targetPoint" />
          </mxGeometry>
        </mxCell>
        <mxCell id="xTbJUdBc3i-07aB3oZLK-158" value="Tamanho = 2" style="text;strokeColor=none;fillColor=none;html=1;fontSize=24;fontStyle=1;verticalAlign=middle;align=center;" vertex="1" parent="1">
          <mxGeometry x="-436.75" y="-2060" width="100" height="40" as="geometry" />
        </mxCell>
        <mxCell id="xTbJUdBc3i-07aB3oZLK-159" value="" style="swimlane;startSize=0;" vertex="1" parent="1">
          <mxGeometry x="-416.75" y="-2239" width="80" height="70" as="geometry" />
        </mxCell>
        <mxCell id="xTbJUdBc3i-07aB3oZLK-160" value="" style="endArrow=classic;html=1;rounded=0;exitX=0.5;exitY=1;exitDx=0;exitDy=0;" edge="1" parent="1" source="xTbJUdBc3i-07aB3oZLK-159">
          <mxGeometry width="50" height="50" relative="1" as="geometry">
            <mxPoint x="-291.25" y="-2269" as="sourcePoint" />
            <mxPoint x="-376.75" y="-2129" as="targetPoint" />
          </mxGeometry>
        </mxCell>
        <mxCell id="xTbJUdBc3i-07aB3oZLK-161" value="6" style="text;strokeColor=none;fillColor=none;html=1;fontSize=24;fontStyle=1;verticalAlign=middle;align=center;" vertex="1" parent="1">
          <mxGeometry x="-416.25" y="-2320" width="80" height="40" as="geometry" />
        </mxCell>
        <mxCell id="xTbJUdBc3i-07aB3oZLK-162" style="edgeStyle=orthogonalEdgeStyle;rounded=0;orthogonalLoop=1;jettySize=auto;html=1;exitX=0.5;exitY=1;exitDx=0;exitDy=0;entryX=0.5;entryY=0;entryDx=0;entryDy=0;" edge="1" parent="1" target="xTbJUdBc3i-07aB3oZLK-159">
          <mxGeometry relative="1" as="geometry">
            <mxPoint x="-375.75" y="-2265" as="sourcePoint" />
          </mxGeometry>
        </mxCell>
        <mxCell id="xTbJUdBc3i-07aB3oZLK-163" value="6" style="text;strokeColor=none;fillColor=none;html=1;fontSize=24;fontStyle=1;verticalAlign=middle;align=center;" vertex="1" parent="1">
          <mxGeometry x="-416.25" y="-2320" width="80" height="40" as="geometry" />
        </mxCell>
        <mxCell id="xTbJUdBc3i-07aB3oZLK-164" value="3" style="text;strokeColor=none;fillColor=none;html=1;fontSize=24;fontStyle=1;verticalAlign=middle;align=center;" vertex="1" parent="1">
          <mxGeometry x="-416.25" y="-2219" width="80" height="40" as="geometry" />
        </mxCell>
        <mxCell id="xTbJUdBc3i-07aB3oZLK-165" value="" style="endArrow=classic;html=1;rounded=0;entryX=0;entryY=0.5;entryDx=0;entryDy=0;" edge="1" parent="1">
          <mxGeometry width="50" height="50" relative="1" as="geometry">
            <mxPoint x="-523.75" y="-2202" as="sourcePoint" />
            <mxPoint x="-416.25" y="-2202" as="targetPoint" />
          </mxGeometry>
        </mxCell>
        <mxCell id="xTbJUdBc3i-07aB3oZLK-166" value="" style="swimlane;startSize=0;" vertex="1" parent="1">
          <mxGeometry x="-416.25" y="-2338" width="80" height="70" as="geometry" />
        </mxCell>
        <mxCell id="xTbJUdBc3i-07aB3oZLK-167" value="TOPO" style="text;strokeColor=none;fillColor=none;html=1;fontSize=24;fontStyle=1;verticalAlign=middle;align=center;" vertex="1" parent="1">
          <mxGeometry x="-540" y="-2240" width="100" height="40" as="geometry" />
        </mxCell>
        <mxCell id="xTbJUdBc3i-07aB3oZLK-168" value="" style="endArrow=classic;html=1;rounded=0;entryX=1;entryY=0.5;entryDx=0;entryDy=0;" edge="1" parent="1" target="xTbJUdBc3i-07aB3oZLK-166">
          <mxGeometry width="50" height="50" relative="1" as="geometry">
            <mxPoint x="-220" y="-2303" as="sourcePoint" />
            <mxPoint x="-10" y="-2208" as="targetPoint" />
          </mxGeometry>
        </mxCell>
        <mxCell id="xTbJUdBc3i-07aB3oZLK-169" value="Aux" style="text;strokeColor=none;fillColor=none;html=1;fontSize=24;fontStyle=1;verticalAlign=middle;align=center;" vertex="1" parent="1">
          <mxGeometry x="-330" y="-2338" width="100" height="40" as="geometry" />
        </mxCell>
        <mxCell id="xTbJUdBc3i-07aB3oZLK-170" value="Passo 12" style="text;strokeColor=none;fillColor=none;html=1;fontSize=24;fontStyle=1;verticalAlign=middle;align=center;" vertex="1" parent="1">
          <mxGeometry x="60" y="-1980" width="100" height="40" as="geometry" />
        </mxCell>
        <mxCell id="xTbJUdBc3i-07aB3oZLK-171" value="" style="shape=mxgraph.arrows2.wedgeArrowDashed2;html=1;bendable=0;startWidth=50;stepSize=15;rounded=0;" edge="1" parent="1">
          <mxGeometry width="100" height="100" relative="1" as="geometry">
            <mxPoint x="113.03999999999996" y="-2124" as="sourcePoint" />
            <mxPoint x="113.03999999999996" y="-2070" as="targetPoint" />
          </mxGeometry>
        </mxCell>
        <mxCell id="xTbJUdBc3i-07aB3oZLK-172" value="Tamanho = 2" style="text;strokeColor=none;fillColor=none;html=1;fontSize=24;fontStyle=1;verticalAlign=middle;align=center;" vertex="1" parent="1">
          <mxGeometry x="53.25" y="-2060" width="100" height="40" as="geometry" />
        </mxCell>
        <mxCell id="xTbJUdBc3i-07aB3oZLK-173" value="" style="swimlane;startSize=0;" vertex="1" parent="1">
          <mxGeometry x="73.25" y="-2239" width="80" height="70" as="geometry" />
        </mxCell>
        <mxCell id="xTbJUdBc3i-07aB3oZLK-174" value="" style="endArrow=classic;html=1;rounded=0;exitX=0.5;exitY=1;exitDx=0;exitDy=0;" edge="1" parent="1" source="xTbJUdBc3i-07aB3oZLK-173">
          <mxGeometry width="50" height="50" relative="1" as="geometry">
            <mxPoint x="198.75" y="-2269" as="sourcePoint" />
            <mxPoint x="113.25" y="-2129" as="targetPoint" />
          </mxGeometry>
        </mxCell>
        <mxCell id="xTbJUdBc3i-07aB3oZLK-175" value="6" style="text;strokeColor=none;fillColor=none;html=1;fontSize=24;fontStyle=1;verticalAlign=middle;align=center;" vertex="1" parent="1">
          <mxGeometry x="73.75" y="-2320" width="80" height="40" as="geometry" />
        </mxCell>
        <mxCell id="xTbJUdBc3i-07aB3oZLK-176" style="edgeStyle=orthogonalEdgeStyle;rounded=0;orthogonalLoop=1;jettySize=auto;html=1;exitX=0.5;exitY=1;exitDx=0;exitDy=0;entryX=0.5;entryY=0;entryDx=0;entryDy=0;" edge="1" parent="1" target="xTbJUdBc3i-07aB3oZLK-173">
          <mxGeometry relative="1" as="geometry">
            <mxPoint x="114.25" y="-2265" as="sourcePoint" />
          </mxGeometry>
        </mxCell>
        <mxCell id="xTbJUdBc3i-07aB3oZLK-177" value="6" style="text;strokeColor=none;fillColor=none;html=1;fontSize=24;fontStyle=1;verticalAlign=middle;align=center;" vertex="1" parent="1">
          <mxGeometry x="73.75" y="-2320" width="80" height="40" as="geometry" />
        </mxCell>
        <mxCell id="xTbJUdBc3i-07aB3oZLK-178" value="3" style="text;strokeColor=none;fillColor=none;html=1;fontSize=24;fontStyle=1;verticalAlign=middle;align=center;" vertex="1" parent="1">
          <mxGeometry x="73.75" y="-2219" width="80" height="40" as="geometry" />
        </mxCell>
        <mxCell id="xTbJUdBc3i-07aB3oZLK-179" value="" style="endArrow=classic;html=1;rounded=0;entryX=0;entryY=0.5;entryDx=0;entryDy=0;" edge="1" parent="1">
          <mxGeometry width="50" height="50" relative="1" as="geometry">
            <mxPoint x="-33.75" y="-2202" as="sourcePoint" />
            <mxPoint x="73.75" y="-2202" as="targetPoint" />
          </mxGeometry>
        </mxCell>
        <mxCell id="xTbJUdBc3i-07aB3oZLK-180" value="" style="swimlane;startSize=0;" vertex="1" parent="1">
          <mxGeometry x="73.75" y="-2338" width="90" height="88" as="geometry" />
        </mxCell>
        <mxCell id="xTbJUdBc3i-07aB3oZLK-186" value="" style="verticalLabelPosition=bottom;verticalAlign=top;html=1;shape=mxgraph.basic.x" vertex="1" parent="xTbJUdBc3i-07aB3oZLK-180">
          <mxGeometry x="5" y="8" width="80" height="72" as="geometry" />
        </mxCell>
        <mxCell id="xTbJUdBc3i-07aB3oZLK-181" value="TOPO" style="text;strokeColor=none;fillColor=none;html=1;fontSize=24;fontStyle=1;verticalAlign=middle;align=center;" vertex="1" parent="1">
          <mxGeometry x="-50" y="-2240" width="100" height="40" as="geometry" />
        </mxCell>
        <mxCell id="xTbJUdBc3i-07aB3oZLK-182" value="" style="endArrow=classic;html=1;rounded=0;entryX=1;entryY=0.5;entryDx=0;entryDy=0;" edge="1" parent="1" target="xTbJUdBc3i-07aB3oZLK-180">
          <mxGeometry width="50" height="50" relative="1" as="geometry">
            <mxPoint x="270" y="-2303" as="sourcePoint" />
            <mxPoint x="480" y="-2208" as="targetPoint" />
          </mxGeometry>
        </mxCell>
        <mxCell id="xTbJUdBc3i-07aB3oZLK-183" value="Aux" style="text;strokeColor=none;fillColor=none;html=1;fontSize=24;fontStyle=1;verticalAlign=middle;align=center;" vertex="1" parent="1">
          <mxGeometry x="160" y="-2338" width="100" height="40" as="geometry" />
        </mxCell>
        <mxCell id="xTbJUdBc3i-07aB3oZLK-184" value="" style="line;strokeWidth=4;direction=south;html=1;perimeter=backbonePerimeter;points=[];outlineConnect=0;" vertex="1" parent="1">
          <mxGeometry x="-125" y="-2402" width="10" height="490" as="geometry" />
        </mxCell>
        <mxCell id="xTbJUdBc3i-07aB3oZLK-187" value="Passo 13" style="text;strokeColor=none;fillColor=none;html=1;fontSize=24;fontStyle=1;verticalAlign=middle;align=center;" vertex="1" parent="1">
          <mxGeometry x="507" y="-1998" width="100" height="40" as="geometry" />
        </mxCell>
        <mxCell id="xTbJUdBc3i-07aB3oZLK-188" value="" style="shape=mxgraph.arrows2.wedgeArrowDashed2;html=1;bendable=0;startWidth=50;stepSize=15;rounded=0;" edge="1" parent="1">
          <mxGeometry width="100" height="100" relative="1" as="geometry">
            <mxPoint x="560.04" y="-2142" as="sourcePoint" />
            <mxPoint x="560.04" y="-2088" as="targetPoint" />
          </mxGeometry>
        </mxCell>
        <mxCell id="xTbJUdBc3i-07aB3oZLK-190" value="Tamanho = 1" style="text;strokeColor=none;fillColor=none;html=1;fontSize=24;fontStyle=1;verticalAlign=middle;align=center;" vertex="1" parent="1">
          <mxGeometry x="500.25" y="-2078" width="100" height="40" as="geometry" />
        </mxCell>
        <mxCell id="xTbJUdBc3i-07aB3oZLK-191" value="" style="swimlane;startSize=0;" vertex="1" parent="1">
          <mxGeometry x="520.25" y="-2257" width="80" height="70" as="geometry" />
        </mxCell>
        <mxCell id="xTbJUdBc3i-07aB3oZLK-192" value="" style="endArrow=classic;html=1;rounded=0;exitX=0.5;exitY=1;exitDx=0;exitDy=0;" edge="1" parent="1" source="xTbJUdBc3i-07aB3oZLK-191">
          <mxGeometry width="50" height="50" relative="1" as="geometry">
            <mxPoint x="645.75" y="-2287" as="sourcePoint" />
            <mxPoint x="560.25" y="-2147" as="targetPoint" />
          </mxGeometry>
        </mxCell>
        <mxCell id="xTbJUdBc3i-07aB3oZLK-196" value="3" style="text;strokeColor=none;fillColor=none;html=1;fontSize=24;fontStyle=1;verticalAlign=middle;align=center;" vertex="1" parent="1">
          <mxGeometry x="520.75" y="-2237" width="80" height="40" as="geometry" />
        </mxCell>
        <mxCell id="xTbJUdBc3i-07aB3oZLK-197" value="" style="endArrow=classic;html=1;rounded=0;entryX=0;entryY=0.5;entryDx=0;entryDy=0;" edge="1" parent="1">
          <mxGeometry width="50" height="50" relative="1" as="geometry">
            <mxPoint x="413.25" y="-2220" as="sourcePoint" />
            <mxPoint x="520.75" y="-2220" as="targetPoint" />
          </mxGeometry>
        </mxCell>
        <mxCell id="xTbJUdBc3i-07aB3oZLK-200" value="TOPO" style="text;strokeColor=none;fillColor=none;html=1;fontSize=24;fontStyle=1;verticalAlign=middle;align=center;" vertex="1" parent="1">
          <mxGeometry x="397" y="-2258" width="100" height="40" as="geometry" />
        </mxCell>
        <mxCell id="xTbJUdBc3i-07aB3oZLK-203" value="" style="line;strokeWidth=4;direction=south;html=1;perimeter=backbonePerimeter;points=[];outlineConnect=0;" vertex="1" parent="1">
          <mxGeometry x="350" y="-2410" width="10" height="490" as="geometry" />
        </mxCell>
        <mxCell id="xTbJUdBc3i-07aB3oZLK-206" value="" style="line;strokeWidth=4;direction=south;html=1;perimeter=backbonePerimeter;points=[];outlineConnect=0;" vertex="1" parent="1">
          <mxGeometry x="950" y="-2410" width="10" height="490" as="geometry" />
        </mxCell>
      </root>
    </mxGraphModel>
  </diagram>
</mxfile>
